<?xml version="1.0" encoding="utf-8"?>
<!-- Svg Vector Icons : http://www.onlinewebfonts.com/icon -->
<!DOCTYPE svg PUBLIC "-//W3C//DTD SVG 1.1//EN" "http://www.w3.org/Graphics/SVG/1.1/DTD/svg11.dtd">
<svg version="1.1" xmlns="http://www.w3.org/2000/svg" xmlns:xlink="http://www.w3.org/1999/xlink" viewBox="0 0 271 150.7" xml:space="preserve">
<g><path d="M 187.62 66.85 H 34.3 L 85.18 15.97 C 88.84 12.31 88.84 6.35 85.18 2.69 L 84.6 2.11 C 80.94 -1.55 74.98 -1.55 71.32 2.11 L 4.54 68.91 C 2.38 70.63 1 73.27 1 76.23 V 77.15 C 1 80.71 2.98 83.79 5.88 85.39 L 71.32 150.83 C 74.98 154.49 80.94 154.49 84.6 150.83 L 85.18 150.25 C 88.84 146.59 88.84 140.63 85.18 136.97 L 34.74 86.53 H 187.6 C 192.78 86.53 196.98 82.33 196.98 77.15 V 76.23 C 197 71.05 192.8 66.85 187.62 66.85 Z"/></g>
</svg>