<svg xmlns="http://www.w3.org/2000/svg" xmlns:xlink="http://www.w3.org/1999/xlink" viewBox="0 0 235.9 131.2" ><path fill="#efefef" d="M 65.4 34.8 C 73.6 34.8 81.4 38 87.2 43.8 C 91.8 48.6 94.6 54.4 95.8 60.8 L 129.8 60.8 C 128.6 45.4 122 31 111 20 C 98.8 7.8 82.6 1 65.4 1 C 48.2 1 32 7.8 19.8 20 C 8.8 31 2.2 45.4 1 60.8 L 35 60.8 C 37.4 46.2 50.2 34.8 65.4 34.8 Z M 50.6 50.8 C 46.6 54.6 44.4 60 44.4 65.6 C 44.4 71.2 46.6 76.4 50.6 80.4 C 54.6 84.4 59.8 86.6 65.4 86.6 C 77 86.6 86.4 77.2 86.4 65.6 C 86.4 60 84.2 54.6 80.2 50.6 C 76.2 46.8 71 44.6 65.4 44.6 C 59.8 44.6 54.6 46.8 50.6 50.8 Z M 87.2 87.2 C 81.4 93 73.6 96.2 65.4 96.2 C 57.2 96.2 49.4 93 43.6 87.2 C 39 82.6 36 76.8 35 70.4 L 1 70.4 C 2.2 85.8 8.8 100.2 19.8 111.2 C 32 123.4 48.2 130.2 65.4 130.2 C 99.4 130.2 127.2 103.8 129.8 70.4 L 95.8 70.4 C 94.6 76.8 91.8 82.6 87.2 87.2 Z"/></svg>